<svg xmlns="http://www.w3.org/2000/svg" viewBox="0 0 1058.03 946.4"><defs><style>.cls-1{fill:#3b1d1e;}.cls-2{fill:#f9e103;}</style></defs><g id="레이어_2" data-name="레이어 2"><g id="레이어_2-2" data-name="레이어 2"><ellipse class="cls-1" cx="746.54" cy="856.47" rx="77.06" ry="44.86" transform="translate(-348.76 554.49) rotate(-33.51)"/><path class="cls-1" d="M529.16,89.72c-206-.08-374,167.86-374,373.85,0,167.65,110.35,309.51,262.37,356.94l74.73,106.75a44.86,44.86,0,0,0,73.51,0L640.5,820.51c152-47.43,262.36-189.29,262.36-356.94C902.86,257.15,735.56,89.8,529.16,89.72ZM362.35,508.43a44.86,44.86,0,1,1,44.86-44.86A44.85,44.85,0,0,1,362.35,508.43Zm166.66,0a44.86,44.86,0,1,1,44.87-44.86A44.86,44.86,0,0,1,529,508.43Zm166.67,0a44.86,44.86,0,1,1,44.86-44.86A44.86,44.86,0,0,1,695.68,508.43Z"/><path class="cls-1" d="M747.7,872.57l-14.14-26.36a435.13,435.13,0,0,0,102.1-76c81.91-81.91,127-190.81,127-306.65s-45.11-224.74-127-306.64S644.85,29.91,529,29.91,304.28,75,222.37,156.93s-127,190.81-127,306.64a440.64,440.64,0,0,0,6.17,73.58c1.16,6.84-.38,13.89,1.1,20.64L76.28,564A468.71,468.71,0,0,1,65.44,463.57c0-123.82,48.22-240.24,135.78-327.79S405.19,0,529,0s240.24,48.22,327.8,135.78,135.78,204,135.78,327.79-48.22,240.24-135.78,327.8A465.61,465.61,0,0,1,747.7,872.57Z"/><path class="cls-1" d="M1058,463.57c0,75.95-27.36,137.51-61.12,137.51-13.8,0-26.54-10.3-36.78-27.68-14.78-25.1,8.23-64.95,8.23-109.83S945.3,379.06,960,354c10.25-17.5,23-27.89,36.9-27.89C1030.67,326.06,1058,387.63,1058,463.57Z"/><path class="cls-1" d="M0,463.57c0,75.95,27.36,137.51,61.12,137.51,13.8,0,26.54-10.3,36.78-27.68,14.78-25.1-8.23-64.95-8.23-109.83S112.73,379.06,98,354c-10.26-17.5-23-27.89-36.9-27.89C27.36,326.06,0,387.63,0,463.57Z"/><ellipse class="cls-1" cx="741.04" cy="861.98" rx="77.06" ry="44.86" transform="translate(-352.71 552.37) rotate(-33.51)"/><circle class="cls-2" cx="362.35" cy="463.57" r="44.86"/><circle class="cls-2" cx="529.01" cy="463.57" r="44.86"/><circle class="cls-2" cx="695.68" cy="463.57" r="44.86"/></g></g></svg>